<svg xmlns="http://www.w3.org/2000/svg" width="256" height="256" viewBox="0 0 100 100"><rect width="100" height="100" rx="50" fill="#76d06a"></rect><path d="M15.28 57.79L15.28 57.79Q13.09 57.79 11.19 56.97Q9.28 56.14 7.87 54.66Q6.45 53.17 5.64 51.20Q4.83 49.23 4.83 46.96L4.83 46.96Q4.83 44.72 5.63 42.76Q6.42 40.81 7.85 39.32Q9.28 37.84 11.17 37.00Q13.06 36.16 15.28 36.16L15.28 36.16Q17.33 36.16 18.86 36.72Q20.38 37.27 21.89 38.51L21.89 38.51Q22.11 38.67 22.20 38.88Q22.30 39.08 22.28 39.27Q22.27 39.46 22.22 39.67L22.22 39.67Q22.19 40.08 21.88 40.35Q21.57 40.62 21.12 40.63Q20.68 40.64 20.27 40.32L20.27 40.32Q19.25 39.43 18.13 38.97Q17.01 38.51 15.28 38.51L15.28 38.51Q13.63 38.51 12.19 39.19Q10.74 39.86 9.65 41.02Q8.55 42.18 7.93 43.71Q7.31 45.23 7.31 46.96L7.31 46.96Q7.31 48.72 7.93 50.26Q8.55 51.80 9.65 52.96Q10.74 54.12 12.19 54.77Q13.63 55.41 15.28 55.41L15.28 55.41Q16.71 55.41 17.96 54.94Q19.22 54.47 20.38 53.60L20.38 53.60Q20.81 53.28 21.25 53.32Q21.68 53.36 21.99 53.67Q22.30 53.98 22.30 54.52L22.30 54.52Q22.30 54.79 22.22 55.02Q22.14 55.25 21.89 55.44L21.89 55.44Q20.49 56.66 18.80 57.22Q17.11 57.79 15.28 57.79ZM22.30 47.99L22.30 54.52L19.81 54.04L19.81 48.99L15.93 48.99Q15.36 48.99 14.99 48.66Q14.63 48.34 14.63 47.85L14.63 47.85Q14.63 47.37 14.99 47.04Q15.36 46.72 15.93 46.72L15.93 46.72L21.03 46.72Q21.60 46.72 21.95 47.07Q22.30 47.42 22.30 47.99L22.30 47.99ZM32.10 57.63L32.10 57.63Q29.94 57.63 28.25 56.67Q26.56 55.71 25.61 54.02Q24.65 52.34 24.65 50.15L24.65 50.15Q24.65 47.93 25.61 46.25Q26.56 44.56 28.25 43.60Q29.94 42.64 32.10 42.64L32.10 42.64Q34.26 42.64 35.93 43.60Q37.61 44.56 38.58 46.25Q39.55 47.93 39.55 50.15L39.55 50.15Q39.55 52.34 38.59 54.02Q37.63 55.71 35.96 56.67Q34.29 57.63 32.10 57.63ZM32.10 55.39L32.10 55.39Q33.56 55.39 34.69 54.71Q35.83 54.04 36.47 52.86Q37.12 51.69 37.12 50.15L37.12 50.15Q37.12 48.61 36.47 47.42Q35.83 46.23 34.69 45.56Q33.56 44.88 32.10 44.88L32.10 44.88Q30.64 44.88 29.51 45.56Q28.37 46.23 27.72 47.42Q27.08 48.61 27.08 50.15L27.08 50.15Q27.08 51.69 27.72 52.86Q28.37 54.04 29.51 54.71Q30.64 55.39 32.10 55.39ZM44.92 63.84L44.92 63.84Q44.36 63.84 44.01 63.49Q43.65 63.14 43.65 62.57L43.65 62.57L43.65 50.12Q43.68 47.99 44.67 46.29Q45.65 44.59 47.33 43.61Q49.00 42.64 51.08 42.64L51.08 42.64Q53.24 42.64 54.93 43.63Q56.61 44.61 57.60 46.30Q58.59 47.99 58.59 50.15L58.59 50.15Q58.59 52.28 57.65 53.98Q56.72 55.68 55.13 56.66Q53.54 57.63 51.54 57.63L51.54 57.63Q49.86 57.63 48.49 56.94Q47.11 56.25 46.19 55.06L46.19 55.06L46.19 62.57Q46.19 63.14 45.84 63.49Q45.49 63.84 44.92 63.84ZM51.11 55.39L51.11 55.39Q52.54 55.39 53.67 54.70Q54.81 54.01 55.47 52.82Q56.13 51.63 56.13 50.15L56.13 50.15Q56.13 48.64 55.47 47.45Q54.81 46.26 53.67 45.57Q52.54 44.88 51.11 44.88L51.11 44.88Q49.68 44.88 48.54 45.57Q47.41 46.26 46.76 47.45Q46.11 48.64 46.11 50.15L46.11 50.15Q46.11 51.63 46.76 52.84Q47.41 54.04 48.54 54.71Q49.68 55.39 51.11 55.39ZM68.95 57.65L68.95 57.65Q67.06 57.65 65.58 56.86Q64.09 56.06 63.23 54.52Q62.37 52.98 62.37 50.77L62.37 50.77L62.37 43.99Q62.37 43.45 62.73 43.09Q63.09 42.72 63.63 42.72L63.63 42.72Q64.17 42.72 64.54 43.09Q64.90 43.45 64.90 43.99L64.90 43.99L64.90 50.77Q64.90 52.34 65.50 53.35Q66.09 54.36 67.10 54.86Q68.12 55.36 69.39 55.36L69.39 55.36Q70.60 55.36 71.56 54.87Q72.52 54.39 73.08 53.58Q73.65 52.77 73.65 51.74L73.65 51.74L75.27 51.74Q75.24 53.42 74.41 54.77Q73.57 56.12 72.15 56.88Q70.74 57.65 68.95 57.65ZM74.89 57.52L74.89 57.52Q74.35 57.52 74.00 57.17Q73.65 56.82 73.65 56.25L73.65 56.25L73.65 43.99Q73.65 43.43 74.00 43.07Q74.35 42.72 74.89 42.72L74.89 42.72Q75.46 42.72 75.81 43.07Q76.16 43.43 76.16 43.99L76.16 43.99L76.16 56.25Q76.16 56.82 75.81 57.17Q75.46 57.52 74.89 57.52ZM87.72 57.63L87.72 57.63Q85.61 57.63 83.93 56.64Q82.24 55.66 81.25 53.96Q80.27 52.25 80.27 50.12L80.27 50.12Q80.27 47.99 81.18 46.30Q82.10 44.61 83.70 43.63Q85.29 42.64 87.29 42.64L87.29 42.64Q88.96 42.64 90.35 43.33Q91.74 44.02 92.63 45.21L92.63 45.21L92.63 37.70Q92.63 37.13 93.00 36.78Q93.36 36.43 93.90 36.43L93.90 36.43Q94.47 36.43 94.82 36.78Q95.17 37.13 95.17 37.70L95.17 37.70L95.17 50.15Q95.17 52.28 94.19 53.98Q93.20 55.68 91.51 56.66Q89.82 57.63 87.72 57.63ZM87.72 55.39L87.72 55.39Q89.18 55.39 90.30 54.70Q91.42 54.01 92.08 52.81Q92.74 51.61 92.74 50.12L92.74 50.12Q92.74 48.61 92.08 47.44Q91.42 46.26 90.30 45.57Q89.18 44.88 87.72 44.88L87.72 44.88Q86.31 44.88 85.17 45.57Q84.02 46.26 83.36 47.44Q82.70 48.61 82.70 50.12L82.70 50.12Q82.70 51.61 83.36 52.81Q84.02 54.01 85.17 54.70Q86.31 55.39 87.72 55.39Z" fill="#ffffff"></path></svg>